<?xml version="1.0" standalone="no"?>
<!DOCTYPE svg PUBLIC "-//W3C//DTD SVG 20010904//EN"
 "http://www.w3.org/TR/2001/REC-SVG-20010904/DTD/svg10.dtd">
<svg version="1.0" xmlns="http://www.w3.org/2000/svg"
 width="655.000000pt" height="655.000000pt" viewBox="0 0 655.000000 655.000000"
 preserveAspectRatio="xMidYMid meet">
<metadata>
Created by potrace 1.11, written by Peter Selinger 2001-2013
</metadata>
<g transform="translate(0.000000,655.000000) scale(0.100000,-0.100000)"
fill="#000000" stroke="none">
<path d="M3263 6377 c-18 -6 -33 -15 -33 -19 0 -4 -10 -4 -22 1 -26 10 -128
-2 -200 -24 -26 -8 -49 -14 -51 -14 -2 1 -23 -3 -80 -16 -19 -4 -26 -2 -22 5
9 15 0 13 -40 -10 -21 -12 -45 -18 -58 -15 -13 4 -36 -1 -52 -9 -29 -15 -50
-12 -39 6 4 6 -2 6 -15 -1 -11 -7 -21 -18 -21 -27 0 -11 -4 -12 -19 -4 -23 12
-44 13 -37 2 7 -11 -63 -56 -85 -55 -10 1 -21 -3 -24 -8 -4 -5 -11 -7 -16 -3
-11 6 60 80 73 76 5 -1 7 2 3 8 -6 10 -22 3 -45 -20 -22 -22 -130 -110 -135
-110 -3 0 -23 -13 -43 -29 -20 -16 -57 -39 -82 -52 -25 -13 -50 -29 -57 -35
-6 -6 -26 -17 -43 -24 -27 -11 -33 -11 -41 1 -7 12 -9 12 -9 -1 0 -8 -10 -21
-21 -29 -19 -11 -21 -11 -15 4 4 11 2 15 -6 13 -7 -3 -13 -18 -13 -36 -1 -41
-45 -76 -97 -77 -22 -1 -42 -6 -46 -12 -8 -12 -92 -13 -92 -1 0 4 9 12 19 18
11 5 32 35 46 65 15 30 45 73 66 95 22 22 39 47 39 55 0 9 7 18 15 21 8 4 15
13 15 21 0 8 18 22 40 30 32 13 38 19 29 30 -11 12 -6 17 14 14 4 0 7 4 7 10
0 16 -14 9 -85 -46 -36 -28 -62 -56 -60 -63 3 -7 1 -11 -4 -8 -18 12 -105 -93
-96 -116 3 -8 -4 -28 -17 -44 -38 -47 -78 -137 -92 -203 -3 -17 -36 -42 -47
-36 -4 3 -35 -2 -68 -11 -34 -8 -70 -12 -81 -9 -11 4 -20 3 -21 -2 0 -4 -2
-18 -5 -31 -3 -20 -1 -22 21 -16 32 8 34 -17 3 -46 -29 -27 -38 -25 -38 5 0
14 -7 28 -15 32 -20 7 -23 4 -29 -32 -3 -16 -12 -35 -20 -44 -14 -13 -18 -13
-36 4 -35 32 -22 6 15 -28 20 -19 37 -44 40 -57 l4 -23 -24 23 c-14 13 -25 19
-25 13 0 -6 7 -16 15 -23 8 -7 15 -19 15 -27 0 -12 -10 -14 -52 -9 l-53 6 45
-16 c25 -8 50 -22 56 -29 8 -11 13 -12 22 -3 9 9 12 9 12 1 0 -24 -12 -42 -25
-37 -8 3 -17 -6 -23 -23 -6 -17 -11 -21 -11 -10 -1 16 -2 16 -19 0 -10 -10
-16 -26 -14 -35 3 -12 -2 -18 -13 -18 -9 0 -23 -7 -31 -15 -9 -8 -11 -15 -5
-15 16 0 13 -26 -5 -41 -8 -7 -25 -31 -36 -53 -15 -30 -17 -37 -5 -28 12 10
16 10 19 0 3 -8 10 -4 18 12 7 14 24 35 37 47 21 20 23 20 23 4 0 -10 -9 -26
-20 -36 -11 -10 -20 -23 -20 -29 0 -6 9 0 20 14 26 34 26 5 0 -35 -20 -30 -28
-81 -11 -71 5 4 7 -12 4 -36 -5 -34 -3 -40 9 -36 11 5 15 -4 17 -39 1 -33 -1
-43 -10 -37 -9 5 -10 2 -5 -12 29 -70 76 -222 76 -245 0 -14 7 -32 15 -39 21
-18 31 14 44 148 7 62 16 124 22 139 5 14 8 32 5 38 -2 6 5 17 17 24 18 12 22
11 34 -5 8 -11 19 -18 25 -16 6 2 18 0 26 -3 11 -4 12 -8 2 -20 -10 -11 -6
-17 22 -28 36 -16 82 -56 74 -64 -3 -3 -12 0 -20 7 -9 6 -21 10 -28 7 -8 -4
-7 -6 5 -6 9 -1 17 -6 17 -12 0 -6 10 -9 23 -7 12 1 36 -7 52 -18 17 -12 62
-36 100 -54 39 -17 89 -41 113 -52 41 -19 54 -41 30 -51 -10 -4 -9 -8 2 -17
12 -9 12 -13 2 -17 -17 -7 4 -33 27 -33 26 0 41 -21 41 -54 0 -25 2 -28 11
-16 9 12 10 11 6 -5 -3 -11 -8 -27 -12 -37 -4 -11 0 -18 14 -23 12 -3 21 -11
21 -16 0 -5 9 -9 20 -9 14 0 19 -6 17 -22 -2 -23 1 -25 56 -27 20 -1 27 -4 19
-9 -7 -5 -39 -7 -72 -6 -33 2 -60 -1 -60 -6 0 -4 -8 -6 -19 -3 -10 3 -22 0
-25 -6 -4 -6 -31 -11 -60 -11 -39 0 -58 -5 -74 -21 -12 -11 -20 -24 -17 -28 2
-5 -4 -11 -15 -14 -11 -3 -22 -12 -25 -21 -3 -9 -8 -24 -12 -33 -3 -10 -5 -26
-4 -37 2 -10 -3 -22 -10 -27 -12 -7 -17 -129 -10 -260 2 -47 47 -108 80 -109
21 0 23 -3 18 -30 -4 -19 -2 -30 5 -30 6 0 8 -3 4 -7 -10 -11 -110 -11 -117 0
-9 12 -60 17 -52 4 4 -6 -5 -8 -24 -4 -26 5 -32 3 -37 -16 -3 -12 0 -25 7 -29
6 -4 8 -10 5 -14 -11 -10 18 -34 42 -34 17 0 19 -3 10 -19 -14 -26 -13 -31 5
-25 8 4 15 1 15 -5 0 -6 8 -11 18 -12 10 0 12 -3 4 -6 -6 -2 -9 -9 -6 -14 3
-6 12 -5 21 2 11 10 16 10 23 0 4 -8 10 -9 14 -3 17 28 119 20 151 -12 9 -8
21 -13 28 -10 19 7 41 -40 33 -71 -5 -18 -15 -27 -36 -32 -16 -3 -27 -9 -24
-14 7 -12 -26 -17 -156 -23 -131 -7 -160 -12 -160 -33 0 -7 -6 -13 -12 -12 -7
1 -24 -3 -38 -9 -14 -6 -21 -11 -16 -11 5 -1 3 -8 -4 -16 -15 -18 -7 -19 40
-5 62 18 129 15 145 -6 21 -28 18 -43 -7 -38 -23 5 -23 4 -2 -5 12 -5 25 -14
29 -20 8 -14 45 -14 45 -1 0 6 7 10 15 10 9 0 15 -6 14 -12 -3 -26 1 -36 19
-43 25 -11 112 -13 112 -3 0 5 11 -2 24 -15 17 -18 32 -23 50 -20 21 4 26 1
26 -16 0 -19 -4 -20 -71 -15 -43 3 -76 1 -84 -6 -7 -6 -29 -11 -50 -12 -27 -1
-32 -4 -21 -10 9 -5 16 -18 16 -28 0 -11 5 -20 10 -20 14 0 12 23 -2 39 -11
11 -9 11 10 1 19 -9 22 -17 17 -38 l-7 -27 24 22 c29 27 98 38 98 16 0 -11 3
-13 13 -5 11 9 51 15 88 13 34 -2 28 -91 -6 -91 -8 0 -15 -4 -15 -10 0 -5 -13
-10 -29 -10 -21 0 -30 -6 -36 -22 -3 -13 -9 -18 -11 -11 -3 7 0 22 6 33 17 32
4 36 -23 6 -13 -14 -29 -26 -36 -26 -6 0 -11 -5 -11 -10 0 -6 10 -8 23 -5 20
5 22 3 22 -37 -1 -24 3 -48 8 -55 5 -7 6 -17 3 -22 -4 -5 -2 -12 4 -16 5 -3
10 -2 10 3 0 5 17 9 38 8 20 -1 43 4 50 11 7 7 20 9 28 6 9 -3 20 0 24 8 13
21 23 3 22 -38 -1 -20 4 -41 11 -45 9 -6 9 -10 -2 -17 -10 -6 -5 -11 18 -16
18 -4 35 -4 38 -1 4 3 12 1 20 -6 7 -6 15 -9 17 -7 8 8 -7 69 -15 63 -5 -3 -7
16 -4 42 5 46 32 84 62 84 17 0 17 38 -1 56 -12 12 -18 12 -42 -1 -27 -14 -44
-12 -44 4 0 4 11 13 25 19 14 7 30 23 35 37 10 26 24 32 35 15 4 -6 11 -8 16
-5 5 4 9 -1 9 -9 0 -9 5 -16 10 -16 9 0 10 6 10 37 0 4 -8 8 -17 8 -25 0 -27
22 -4 37 12 7 21 23 21 35 0 15 6 23 17 23 15 0 14 2 -3 15 -17 13 -17 14 -1
15 21 0 23 26 2 34 -8 3 -15 15 -15 26 0 12 -7 20 -16 20 -9 0 -18 9 -21 20
-3 11 -11 20 -19 20 -7 0 -17 7 -22 16 -5 9 -24 17 -43 18 -29 1 -34 5 -33 26
1 14 -3 28 -9 32 -7 4 -12 13 -12 20 -1 29 -18 84 -30 98 -8 8 -14 18 -15 22
-2 19 -13 38 -22 38 -12 0 -38 26 -38 38 0 9 -50 37 -62 34 -4 -1 -17 12 -29
29 -12 18 -27 28 -35 25 -21 -8 -17 8 6 22 12 7 25 10 30 7 6 -4 10 -2 10 3 0
5 14 15 30 22 27 11 30 17 25 41 -5 23 -2 29 22 41 17 9 27 20 25 31 -2 9 3
17 11 17 8 0 18 8 21 17 5 11 10 13 17 6 6 -6 26 -7 50 -3 21 4 39 4 39 0 0
-4 26 -2 58 3 31 5 80 10 107 11 37 1 49 5 47 15 -2 9 4 12 18 8 11 -3 20 -1
20 3 0 7 54 30 69 30 3 -1 -3 -8 -14 -18 -12 -9 -24 -25 -28 -36 -7 -17 -4
-18 27 -13 18 3 38 1 44 -5 7 -7 17 -6 32 2 21 11 21 13 5 28 -13 13 -19 14
-22 5 -5 -15 -53 -18 -53 -4 0 5 8 8 18 7 13 -1 17 7 17 29 0 22 5 31 20 33
11 3 30 15 42 28 12 13 28 21 36 18 17 -6 47 21 47 42 0 8 10 14 23 14 13 0
28 5 35 12 13 13 16 48 5 48 -5 0 -9 11 -9 25 -2 26 3 30 22 17 12 -8 12 -82
0 -124 -7 -24 -5 -28 13 -28 17 0 20 4 15 30 -4 19 -2 30 5 30 6 0 11 -7 11
-15 0 -8 5 -15 10 -15 16 0 11 -25 -10 -53 -13 -16 -17 -28 -10 -32 6 -4 8
-15 5 -26 -5 -13 -2 -19 10 -19 12 0 15 6 10 20 -4 12 -2 20 5 20 6 0 10 7 8
16 -5 28 21 27 32 0 5 -14 14 -26 20 -26 16 0 12 -18 -10 -40 -11 -11 -15 -20
-9 -20 5 0 7 -5 3 -11 -3 -6 -17 -8 -30 -5 -20 5 -23 3 -21 -16 1 -15 -5 -26
-20 -33 -37 -16 -26 -25 12 -9 19 7 50 14 70 14 25 0 35 4 35 16 0 8 5 12 10
9 6 -3 10 -15 10 -25 0 -16 5 -18 30 -13 19 3 30 1 30 -5 0 -6 7 -9 15 -6 12
5 12 2 -1 -25 -9 -17 -20 -31 -25 -31 -13 0 -11 18 4 23 22 10 -16 28 -45 23
-16 -3 -28 -1 -28 4 0 6 -4 10 -10 10 -5 0 -10 -20 -10 -45 0 -30 -4 -45 -13
-45 -15 0 -47 -35 -47 -52 0 -6 -3 -8 -7 -4 -5 4 -8 20 -8 34 0 22 -5 28 -27
30 -19 2 -28 -1 -28 -11 0 -8 -7 -17 -15 -21 -24 -9 -17 -33 11 -40 38 -10 58
-34 61 -72 2 -43 -25 -63 -30 -22 -3 16 -22 23 -22 7 0 -6 -8 -16 -17 -23 -23
-17 -23 -46 -1 -46 13 0 11 -4 -7 -20 -29 -26 -44 -26 -37 0 7 28 -3 25 -36
-9 -33 -35 -35 -58 -4 -64 21 -4 20 -4 -3 -5 -24 -2 -70 35 -70 54 0 13 -54
14 -62 1 -4 -6 -3 -18 1 -26 9 -17 7 -87 -3 -126 -4 -16 -11 -22 -20 -19 -22
8 -39 -31 -21 -46 8 -6 19 -9 25 -5 15 9 12 -6 -5 -25 -13 -15 -12 -19 11 -41
25 -24 26 -24 40 -4 9 12 18 16 22 10 4 -6 21 -11 37 -13 19 -2 25 1 17 6 -10
7 -8 14 8 35 17 22 30 27 65 27 46 0 71 -19 61 -46 -7 -18 30 -53 57 -54 9 0
17 -8 17 -18 0 -21 -42 -51 -48 -33 -2 6 -8 11 -13 11 -5 0 -4 -11 1 -26 11
-29 6 -44 -16 -44 -11 0 -13 6 -9 19 3 11 1 22 -5 26 -7 4 -10 1 -9 -6 1 -8
-1 -22 -6 -32 -4 -11 -3 -23 4 -30 8 -8 11 -8 11 3 0 7 2 11 5 8 13 -12 -9
-38 -33 -38 -24 0 -25 0 -7 -20 18 -19 17 -20 -3 -20 -11 0 -22 5 -24 12 -3 7
-9 8 -18 3 -10 -6 -10 -11 4 -21 22 -16 13 -34 -14 -27 -26 7 -25 -8 2 -31
l21 -19 -24 -18 c-25 -19 -39 -11 -39 24 0 20 -11 22 -28 5 -9 -9 -12 -9 -12
1 0 7 -5 9 -11 5 -8 -5 -8 -8 0 -14 19 -11 1 -38 -30 -45 -38 -9 -37 -25 2
-25 19 0 28 -4 24 -11 -4 -6 -19 -7 -36 -4 -22 5 -29 3 -29 -9 0 -9 -4 -16 -8
-16 -18 0 -62 26 -62 36 0 6 -7 17 -15 24 -16 13 -11 31 8 29 7 -1 19 -1 27 0
12 1 12 3 -2 12 -17 10 -58 -7 -58 -23 0 -5 -9 -8 -19 -8 -11 0 -22 -6 -24
-12 -3 -8 -6 -6 -6 5 -1 22 -41 23 -41 1 0 -12 -6 -15 -20 -10 -11 3 -29 9
-40 12 -14 5 -20 2 -20 -10 0 -9 6 -16 13 -16 9 0 12 -9 9 -29 -2 -16 1 -32 7
-36 8 -5 10 1 5 19 -4 16 -2 26 5 26 7 0 11 -20 11 -49 0 -55 -22 -76 -46 -44
-11 15 -13 16 -18 3 -15 -45 -26 -100 -21 -112 4 -10 -5 -19 -27 -28 -53 -21
-90 -51 -84 -67 3 -7 -1 -16 -10 -20 -9 -3 -20 -16 -25 -29 -4 -13 -15 -24
-24 -24 -8 0 -16 -6 -16 -12 -1 -7 -2 -17 -4 -23 -1 -5 -3 -15 -3 -21 -1 -7
-12 -14 -24 -17 -17 -5 -19 -9 -9 -20 9 -12 8 -16 -4 -21 -9 -3 -13 -2 -10 4
3 6 2 10 -4 10 -5 0 -13 -9 -16 -20 -8 -24 -55 -28 -55 -5 0 8 -4 15 -10 15
-5 0 -10 -5 -10 -10 0 -7 -25 -9 -67 -7 -64 4 -76 1 -213 -55 -80 -33 -224
-88 -320 -124 -96 -36 -213 -81 -260 -101 -79 -33 -123 -53 -350 -161 -91 -43
-280 -180 -291 -210 -4 -10 -23 -30 -42 -45 -22 -16 -46 -50 -63 -89 -16 -35
-55 -117 -87 -182 -95 -195 -169 -397 -243 -660 l-44 -160 0 -208 0 -208 636
0 c450 0 641 3 656 11 30 16 122 20 109 5 -7 -8 6 -12 46 -14 38 -2 59 1 64
10 7 10 11 10 21 0 9 -9 85 -12 305 -12 271 0 293 1 302 18 5 10 9 26 8 37 -1
12 5 21 17 23 17 4 18 0 12 -37 l-6 -41 178 0 179 0 -5 25 c-3 18 0 25 12 25
9 0 16 -8 16 -20 0 -22 7 -25 29 -11 11 7 10 13 -5 35 -11 14 -24 24 -30 22
-6 -2 -17 0 -25 5 -10 6 -8 9 11 9 14 0 36 -12 49 -25 13 -14 27 -25 32 -25 5
0 9 -9 9 -20 0 -20 7 -20 275 -20 151 0 276 3 276 8 8 52 6 60 -14 70 -21 10
-20 11 8 11 30 1 30 0 27 -44 l-4 -45 1681 0 1681 0 0 625 0 624 -46 97 c-25
53 -49 107 -54 120 -5 13 -19 30 -32 38 -13 8 -48 39 -79 68 -58 54 -170 116
-324 178 -44 18 -105 43 -135 56 -30 13 -109 44 -175 69 -66 25 -142 55 -170
66 -55 23 -215 85 -255 99 -14 4 -79 29 -145 55 -119 46 -203 75 -280 96 -22
6 -49 15 -60 19 -11 4 -56 21 -100 37 -44 17 -109 41 -145 53 -52 18 -76 34
-121 81 -31 33 -62 59 -70 59 -21 0 -49 28 -83 82 -31 50 -69 70 -156 83 -44
7 -45 7 -27 -12 9 -11 17 -24 17 -30 0 -6 3 -13 8 -15 11 -5 44 -80 37 -86 -3
-3 -5 0 -5 6 0 7 -8 12 -18 12 -26 0 -34 11 -19 28 10 12 9 14 -3 10 -8 -2
-17 -15 -20 -29 l-6 -24 -5 26 c-3 14 0 30 8 37 7 7 13 18 13 25 0 7 -5 5 -10
-5 -8 -13 -14 -14 -35 -5 -28 14 -32 25 -10 33 23 9 18 26 -5 19 -22 -7 -29
20 -7 28 8 4 7 6 -4 6 -8 1 -20 -4 -27 -11 -7 -7 -12 -9 -12 -4 0 4 7 14 15
22 8 9 15 23 15 32 0 15 -2 15 -10 2 -8 -13 -10 -13 -10 2 0 9 -7 21 -16 26
-11 6 -13 12 -6 16 21 13 -13 75 -41 76 -5 0 -5 -4 -2 -10 3 -5 1 -18 -4 -27
-9 -16 -10 -16 -11 5 0 12 -4 22 -9 22 -16 0 -19 41 -5 68 8 16 12 43 9 67 -4
30 -3 35 4 20 6 -13 10 -15 10 -5 1 10 4 11 12 3 8 -8 7 -16 -2 -30 -7 -13 -9
-28 -4 -39 8 -17 9 -16 12 6 2 14 8 34 13 45 4 11 11 39 13 63 4 35 1 45 -16
57 -17 12 -19 17 -9 27 18 18 15 27 -8 21 -29 -8 -24 9 10 32 20 14 28 26 24
38 -4 12 0 17 13 18 13 1 11 3 -7 9 -14 4 -19 8 -11 9 11 1 10 5 -3 20 -17 19
-17 21 6 44 13 13 22 29 20 35 -1 5 2 13 7 17 7 4 11 -4 11 -19 0 -16 -6 -26
-15 -26 -20 0 -19 -39 1 -61 8 -9 17 -31 19 -48 3 -25 1 -31 -15 -31 -14 0
-18 -5 -13 -17 5 -12 8 -13 11 -4 2 7 10 1 18 -15 11 -21 14 -66 13 -190 -2
-121 1 -167 11 -179 7 -8 10 -18 6 -22 -3 -3 -6 -1 -6 5 0 7 -4 12 -8 12 -9 0
-3 -70 7 -71 3 0 14 -2 24 -4 13 -2 17 1 13 11 -26 68 -37 260 -22 380 11 84
16 98 43 127 33 34 113 196 113 229 0 11 5 18 12 16 9 -3 17 16 25 56 15 70
52 197 63 211 4 6 11 30 14 55 8 47 42 146 59 168 5 7 8 15 5 17 -6 7 25 163
46 235 9 30 25 86 36 125 11 38 23 79 28 90 28 62 42 160 42 301 1 155 -7 454
-15 584 -6 96 -37 224 -63 259 -11 15 -31 50 -46 79 -14 28 -37 59 -51 68 -14
9 -25 24 -25 34 0 10 -7 23 -15 30 -9 7 -15 29 -15 51 0 22 -4 39 -10 39 -5 0
-10 8 -10 18 0 9 -16 32 -35 51 -19 19 -35 39 -35 45 0 6 -9 18 -20 26 -11 8
-20 19 -20 26 0 6 -9 22 -21 35 -12 13 -29 33 -38 44 -25 32 -250 162 -295
171 -10 2 -37 12 -60 23 -22 11 -54 25 -70 31 -16 6 -26 13 -23 16 9 9 111
-13 115 -25 2 -6 11 -11 20 -11 13 1 9 7 -12 25 -20 16 -53 27 -100 35 -39 6
-87 17 -106 25 -55 22 -80 27 -80 17 0 -6 11 -13 25 -16 49 -12 26 -27 -37
-24 -65 3 -91 22 -36 26 34 3 45 8 35 18 -4 4 -27 1 -51 -6 -39 -11 -47 -10
-62 4 -12 13 -19 14 -30 6 -16 -14 -84 -21 -84 -9 0 5 4 9 9 9 5 0 11 7 15 15
3 8 4 14 3 14 -1 -1 -17 -7 -34 -12z m444 -133 c-3 -3 -12 -4 -19 -1 -8 3 -5
6 6 6 11 1 17 -2 13 -5z m-1831 -221 c-10 -10 -19 5 -10 18 6 11 8 11 12 0 2
-7 1 -15 -2 -18z m124 -133 c0 -5 -5 -10 -11 -10 -5 0 -7 5 -4 10 3 6 8 10 11
10 2 0 4 -4 4 -10z m-85 -40 c3 -5 -1 -10 -9 -10 -9 0 -16 5 -16 10 0 6 4 10
9 10 6 0 13 -4 16 -10z m-255 -260 c0 -5 -3 -9 -7 -9 -25 4 -41 -4 -46 -22 -5
-18 -9 -19 -27 -9 -24 13 -22 32 4 36 10 1 20 5 24 8 9 10 52 7 52 -4z m-210
-61 c0 -18 -2 -19 -15 -9 -15 12 -12 30 6 30 5 0 9 -10 9 -21z m-73 -325 c-3
-3 -12 -4 -19 -1 -8 3 -5 6 6 6 11 1 17 -2 13 -5z m63 -230 c0 -8 -4 -14 -10
-14 -5 0 -10 9 -10 21 0 11 5 17 10 14 6 -3 10 -13 10 -21z m110 -24 c0 -5 -5
-10 -11 -10 -5 0 -7 5 -4 10 3 6 8 10 11 10 2 0 4 -4 4 -10z m90 -6 c0 -10 6
-14 14 -11 8 3 18 -5 25 -19 16 -35 14 -48 -5 -29 -9 9 -19 13 -22 10 -4 -3 0
-10 8 -15 10 -7 11 -10 2 -10 -15 0 -66 49 -75 73 -5 14 -1 17 23 17 21 0 30
-5 30 -16z m-205 -49 c0 -25 -3 -45 -7 -45 -5 0 -8 -9 -8 -20 0 -11 5 -20 10
-20 6 0 10 -9 10 -20 0 -18 -3 -19 -20 -8 -11 7 -21 19 -22 28 -3 14 9 95 18
129 8 26 18 0 19 -44z m379 -19 c20 -19 36 -42 36 -51 0 -11 5 -15 15 -11 9 3
15 0 15 -8 0 -8 7 -13 16 -12 9 0 19 -6 21 -14 3 -9 1 -11 -4 -4 -4 5 -24 10
-43 10 -21 -1 -35 4 -36 12 -1 6 -2 17 -3 22 0 6 -7 10 -15 10 -8 0 -16 7 -20
15 -3 8 -11 13 -18 11 -7 -1 -10 -1 -5 1 13 8 7 33 -9 33 -8 0 -12 5 -9 10 10
16 20 12 59 -24z m1341 -476 c3 -5 1 -10 -4 -10 -6 0 -11 5 -11 10 0 6 2 10 4
10 3 0 8 -4 11 -10z m1044 -79 c29 -31 71 -183 71 -259 0 -45 -27 -122 -83
-242 -19 -41 -40 -93 -46 -115 -6 -22 -31 -69 -56 -104 -24 -35 -49 -79 -55
-96 -8 -25 -21 -36 -53 -49 -24 -9 -48 -16 -55 -16 -7 0 -15 -7 -18 -15 -8
-19 -28 -19 -43 -1 -7 8 -27 17 -45 20 -19 4 -37 13 -40 22 -3 8 -10 13 -15 9
-15 -8 -33 69 -23 96 6 15 11 18 16 11 4 -7 11 -10 15 -8 4 3 20 -7 35 -23 33
-34 76 -32 76 3 0 12 6 28 13 35 10 10 9 12 -3 9 -20 -4 -23 32 -5 57 13 17
17 18 25 5 8 -12 10 -12 16 3 3 10 4 21 0 24 -3 4 -6 1 -6 -6 0 -9 -5 -9 -22
0 -19 10 -19 13 -5 20 9 5 14 16 11 24 -4 8 -2 15 4 15 5 0 13 11 16 24 4 17
15 25 38 30 19 4 34 2 36 -4 2 -5 10 -10 18 -10 8 0 14 -4 14 -10 0 -9 -15
-14 -33 -11 -5 1 -6 -6 -4 -16 3 -10 8 -35 12 -57 4 -22 17 -48 32 -62 26 -24
49 -23 39 3 -4 9 -2 11 6 7 8 -5 9 3 5 27 -4 20 -3 29 2 21 6 -10 10 -8 14 10
4 12 7 33 7 45 0 12 9 27 20 33 11 6 20 21 20 34 0 28 24 78 33 69 4 -3 7 3 7
15 0 22 18 62 33 73 12 9 26 162 16 174 -5 5 -9 24 -9 41 0 18 -5 36 -10 39
-6 4 -8 11 -5 16 4 5 1 9 -4 9 -6 0 -11 8 -11 18 0 9 -11 26 -25 36 -25 19
-34 56 -14 56 6 0 23 -13 38 -29z m-116 4 c-3 -9 -8 -14 -10 -11 -3 3 -2 9 2
15 9 16 15 13 8 -4z m3 -66 c3 -6 3 -14 -2 -18 -5 -3 -10 -22 -11 -41 -2 -33
-2 -34 9 -10 11 24 11 23 18 -20 11 -75 6 -105 -18 -108 -23 -4 -30 16 -12 34
6 6 4 26 -5 57 -8 26 -12 54 -8 63 4 10 -2 17 -16 21 -28 7 -27 20 2 26 12 2
25 5 29 6 4 0 10 -4 14 -10z m-136 -74 c0 -18 -5 -25 -19 -25 -11 0 -23 -4
-26 -10 -10 -16 -21 -12 -22 9 -1 15 4 19 25 18 15 -1 27 3 28 11 4 32 14 30
14 -3z m-1694 3 c4 -5 24 -8 45 -8 21 0 41 -4 44 -10 3 -5 22 -8 42 -5 31 4
35 2 30 -15 -4 -15 0 -20 14 -20 10 0 19 5 19 12 0 6 3 8 6 5 4 -4 1 -13 -6
-22 -10 -13 -28 -14 -103 -9 -66 5 -88 4 -83 -5 4 -6 14 -11 22 -11 8 0 13 -4
10 -8 -5 -8 -135 5 -145 14 -2 2 2 10 9 19 11 13 8 15 -18 15 -25 0 -29 3 -25
19 3 10 14 23 25 28 24 10 103 11 114 1z m244 -48 c0 -5 -5 -10 -11 -10 -5 0
-7 5 -4 10 3 6 8 10 11 10 2 0 4 -4 4 -10z m1418 -29 c-15 -25 -28 -27 -28 -6
0 8 7 15 16 15 11 0 14 5 9 18 -5 13 -3 14 5 6 9 -9 8 -17 -2 -33z m110 -13
c7 -7 12 -16 12 -20 0 -10 -46 -6 -56 5 -4 4 -16 7 -26 7 -10 0 -18 5 -18 10
0 14 74 12 88 -2z m-137 -51 c-8 -8 -11 -7 -11 4 0 20 13 34 18 19 3 -7 -1
-17 -7 -23z m-1666 -17 c0 -27 -22 -39 -31 -16 -8 22 3 49 19 43 6 -2 12 -14
12 -27z m635 20 c0 -5 -7 -10 -16 -10 -8 0 -12 5 -9 10 3 6 10 10 16 10 5 0 9
-4 9 -10z m930 0 c0 -5 -7 -10 -16 -10 -11 0 -15 -6 -11 -20 7 -26 -9 -35 -22
-13 -7 13 -5 23 6 35 17 20 43 24 43 8z m-1460 -38 c0 -15 4 -22 8 -16 12 18
66 11 70 -8 4 -20 -32 -38 -74 -38 -16 0 -23 -4 -18 -11 3 -6 17 -9 30 -6 30
5 65 -27 39 -36 -8 -4 -14 -12 -13 -19 2 -7 -4 -13 -12 -14 -27 -2 -75 -17
-81 -26 -5 -8 -84 30 -126 63 -22 16 -22 17 -4 33 14 13 24 14 45 6 30 -11 53
-13 43 -4 -3 3 -1 11 4 18 6 6 18 27 29 46 10 19 23 34 29 33 6 -2 11 2 11 8
0 5 5 7 10 4 6 -3 10 -18 10 -33z m1785 28 c3 -5 -3 -10 -14 -10 -12 0 -21 5
-21 10 0 6 6 10 14 10 8 0 18 -4 21 -10z m-1141 -9 c3 -5 -1 -11 -9 -14 -9 -4
-12 -1 -8 9 6 16 10 17 17 5z m742 -34 c1 -19 -5 -36 -14 -43 -13 -9 -14 -15
-4 -26 6 -8 9 -17 6 -20 -3 -3 11 -8 30 -10 24 -3 36 0 36 8 0 29 21 22 39
-13 28 -56 29 -85 3 -117 -28 -36 -31 -106 -4 -107 12 0 13 -2 3 -6 -8 -3 -20
2 -28 13 -9 13 -13 14 -13 4 0 -9 -7 -4 -17 10 -12 17 -14 25 -4 28 20 7 -8
32 -36 32 -22 0 -23 -3 -18 -34 5 -24 3 -35 -7 -39 -10 -3 -14 -20 -13 -51 1
-25 -2 -43 -7 -40 -11 7 -37 -24 -38 -43 0 -7 5 -13 10 -13 6 0 10 9 10 20 0
11 5 20 10 20 13 0 13 -27 -1 -35 -6 -4 -8 -13 -5 -21 7 -18 -14 -54 -31 -54
-7 0 -13 9 -13 19 0 14 5 18 20 14 25 -7 26 5 3 23 -14 10 -18 27 -18 75 1 40
5 64 13 67 7 2 10 8 6 13 -3 5 2 19 10 31 21 29 20 55 -1 67 -15 8 -16 13 -6
30 10 16 9 20 -4 25 -9 4 -13 13 -9 22 4 9 1 23 -5 30 -9 11 -8 14 5 14 9 0
16 -4 16 -10 0 -5 7 -10 15 -10 13 0 15 7 9 36 -5 27 -4 35 5 30 7 -4 11 0 11
13 0 10 6 22 13 25 9 3 7 8 -5 16 -16 10 -16 12 -1 30 21 24 27 18 29 -23z
m409 15 c14 -10 17 -32 4 -32 -8 0 -8 -4 -1 -13 13 -15 -16 -114 -38 -127 -10
-7 -11 -10 -2 -10 18 0 15 -18 -5 -23 -49 -14 -73 -17 -73 -10 0 5 17 26 38
48 25 27 37 50 38 70 0 24 9 92 13 103 2 4 16 2 26 -6z m-248 -34 c-3 -8 -6
-5 -6 6 -1 11 2 17 5 13 3 -3 4 -12 1 -19z m-871 -18 c8 0 14 -4 14 -10 0 -14
-33 -13 -48 2 -7 7 -12 18 -12 26 0 10 3 10 16 -2 8 -9 22 -16 30 -16z m104
26 c0 -3 -4 -8 -10 -11 -5 -3 -10 -1 -10 4 0 6 5 11 10 11 6 0 10 -2 10 -4z
m17 -28 c-3 -8 -6 -5 -6 6 -1 11 2 17 5 13 3 -3 4 -12 1 -19z m87 -52 c-3 -8
-12 -12 -20 -9 -9 3 -14 -2 -14 -15 0 -14 -8 -22 -22 -24 -20 -3 -23 -8 -21
-43 1 -22 -1 -32 -3 -22 -5 14 -9 16 -19 7 -19 -16 -40 -3 -25 15 8 9 6 14 -5
19 -11 4 -14 13 -10 26 4 11 2 20 -4 20 -25 0 -8 18 21 24 25 5 36 2 46 -11
11 -16 14 -16 22 -3 5 8 10 18 10 23 0 4 11 7 25 7 17 0 23 -4 19 -14z m61 -4
c-3 -8 -5 -20 -5 -28 0 -8 -7 -14 -16 -14 -11 0 -14 6 -9 21 5 14 2 25 -6 30
-10 6 -5 8 14 7 19 -2 26 -7 22 -16z m-217 -54 c-2 -6 -10 -14 -16 -16 -7 -2
-10 2 -6 12 7 18 28 22 22 4z m-1211 -60 c-3 -8 -6 -5 -6 6 -1 11 2 17 5 13 3
-3 4 -12 1 -19z m53 -28 c0 -5 -7 -10 -16 -10 -8 0 -12 5 -9 10 3 6 10 10 16
10 5 0 9 -4 9 -10z m240 0 c0 -5 -4 -10 -9 -10 -6 0 -13 5 -16 10 -3 6 1 10 9
10 9 0 16 -4 16 -10z m1590 -40 c0 -5 -4 -10 -10 -10 -5 0 -10 5 -10 10 0 6 5
10 10 10 6 0 10 -4 10 -10z m-670 -20 c0 -5 -5 -10 -11 -10 -5 0 -7 5 -4 10 3
6 8 10 11 10 2 0 4 -4 4 -10z m280 -35 c7 -8 9 -15 6 -15 -4 0 -14 7 -22 15
-9 8 -11 15 -6 15 5 0 15 -7 22 -15z m-320 -45 c0 -5 -4 -10 -10 -10 -5 0 -10
5 -10 10 0 6 5 10 10 10 6 0 10 -4 10 -10z m90 -39 c0 -6 -4 -13 -10 -16 -5
-3 -10 1 -10 9 0 9 5 16 10 16 6 0 10 -4 10 -9z m50 -23 c0 -18 2 -42 4 -53 2
-11 1 -14 -1 -7 -3 6 -9 12 -14 12 -5 0 -9 18 -9 40 0 22 5 40 10 40 6 0 10
-15 10 -32z m50 28 c0 -3 -4 -8 -10 -11 -5 -3 -10 -1 -10 4 0 6 5 11 10 11 6
0 10 -2 10 -4z m-140 -35 c0 -5 3 -16 6 -25 4 -10 1 -16 -8 -16 -7 0 -15 11
-16 25 -1 14 3 25 8 25 6 0 10 -4 10 -9z m60 -55 c0 -3 -4 -8 -10 -11 -5 -3
-10 -1 -10 4 0 6 5 11 10 11 6 0 10 -2 10 -4z m530 -78 c0 -5 -7 -3 -15 6 -8
8 -15 18 -15 22 0 3 7 1 15 -6 8 -7 15 -17 15 -22z m348 7 c0 -20 -5 -25 -27
-25 -25 1 -25 1 -7 15 15 11 16 15 5 16 -8 0 -6 4 6 9 11 5 21 9 21 9 1 1 2
-10 2 -24z m-1921 -7 c-3 -8 -6 -5 -6 6 -1 11 2 17 5 13 3 -3 4 -12 1 -19z
m633 -69 c0 -16 -3 -18 -19 -7 -15 9 -17 16 -9 25 13 16 28 7 28 -18z m390 1
c-20 -13 -33 -13 -25 0 3 6 14 10 23 10 15 0 15 -2 2 -10z m774 -5 c-4 -8 -10
-12 -15 -9 -11 6 -2 24 11 24 5 0 7 -7 4 -15z m126 -6 c0 -5 -4 -9 -10 -9 -5
0 -10 7 -10 16 0 8 5 12 10 9 6 -3 10 -10 10 -16z m-395 1 c3 -5 1 -10 -4 -10
-6 0 -11 5 -11 10 0 6 2 10 4 10 3 0 8 -4 11 -10z m312 -12 c-3 -8 -6 -5 -6 6
-1 11 2 17 5 13 3 -3 4 -12 1 -19z m43 -33 c0 -14 -4 -25 -10 -25 -5 0 -10 11
-10 25 0 14 5 25 10 25 6 0 10 -11 10 -25z m-190 -19 c0 -3 -4 -8 -10 -11 -5
-3 -10 -1 -10 4 0 6 5 11 10 11 6 0 10 -2 10 -4z m-980 -30 c0 -8 5 -16 12
-18 16 -6 18 -48 1 -48 -7 0 -13 11 -13 24 0 13 -7 26 -15 30 -8 3 -15 10 -15
16 0 5 7 10 15 10 8 0 15 -6 15 -14z m160 -23 l25 -5 -22 -9 c-14 -5 -23 -17
-23 -29 0 -11 -4 -20 -10 -20 -5 0 -10 6 -10 14 0 8 -9 18 -20 21 -11 3 -20
12 -20 20 0 13 34 17 80 8z m114 -21 c8 -13 -5 -52 -15 -46 -12 7 -12 54 0 54
6 0 12 -4 15 -8z m270 -23 c-6 -11 -24 -2 -24 11 0 5 7 7 15 4 8 -4 12 -10 9
-15z m-229 -9 c3 -5 -1 -10 -9 -10 -9 0 -16 5 -16 10 0 6 4 10 9 10 6 0 13 -4
16 -10z m-1149 -15 c8 -8 21 -12 29 -9 8 4 15 1 15 -5 0 -12 -29 -15 -54 -5
-9 3 -16 12 -16 20 0 18 8 18 26 -1z m1080 -32 c-10 -10 -19 5 -10 18 6 11 8
11 12 0 2 -7 1 -15 -2 -18z m114 23 c0 -3 -4 -8 -10 -11 -5 -3 -10 -1 -10 4 0
6 5 11 10 11 6 0 10 -2 10 -4z m-215 -26 c3 -5 -1 -10 -9 -10 -9 0 -16 5 -16
10 0 6 4 10 9 10 6 0 13 -4 16 -10z m193 -35 c1 -17 -3 -25 -14 -25 -11 0 -14
5 -10 16 3 9 6 20 6 25 0 21 16 7 18 -16z m62 5 c0 -5 -9 -10 -21 -10 -11 0
-17 5 -14 10 3 6 13 10 21 10 8 0 14 -4 14 -10z m-145 -19 c3 -5 1 -12 -5 -16
-5 -3 -10 1 -10 9 0 18 6 21 15 7z m-35 -48 c-1 -24 -2 -26 -11 -10 -5 9 -7
22 -4 27 10 17 15 11 15 -17z m-1040 -3 c0 -5 -2 -10 -4 -10 -3 0 -8 5 -11 10
-3 6 -1 10 4 10 6 0 11 -4 11 -10z m306 -16 c-4 -9 -2 -13 5 -8 7 4 9 -1 7
-12 -2 -11 -11 -18 -21 -18 -9 1 -17 -2 -17 -7 0 -5 -4 -9 -10 -9 -16 0 -12
32 7 52 20 22 37 24 29 2z m674 -20 c0 -8 -5 -12 -10 -9 -6 4 -8 11 -5 16 9
14 15 11 15 -7z m317 -6 c-3 -8 -6 -5 -6 6 -1 11 2 17 5 13 3 -3 4 -12 1 -19z
m498 -18 c3 -5 -1 -10 -10 -10 -9 0 -13 5 -10 10 3 6 8 10 10 10 2 0 7 -4 10
-10z m72 -72 c-3 -7 -5 -2 -5 12 0 14 2 19 5 13 2 -7 2 -19 0 -25z m-57 -28
c0 -5 -2 -10 -4 -10 -3 0 -8 5 -11 10 -3 6 -1 10 4 10 6 0 11 -4 11 -10z
m-1445 -10 c-3 -5 -10 -10 -16 -10 -5 0 -9 5 -9 10 0 6 7 10 16 10 8 0 12 -4
9 -10z m-93 -42 c-12 -12 -35 -1 -27 12 3 5 13 6 21 3 10 -4 12 -9 6 -15z
m578 2 c0 -5 -4 -10 -10 -10 -5 0 -10 5 -10 10 0 6 5 10 10 10 6 0 10 -4 10
-10z m-630 -19 c0 -6 -4 -13 -10 -16 -5 -3 -10 1 -10 9 0 9 5 16 10 16 6 0 10
-4 10 -9z m106 -25 c-1 -18 -4 -22 -13 -14 -6 5 -9 16 -6 24 8 23 21 16 19
-10z m204 -65 c-5 -11 -7 -28 -4 -38 5 -17 5 -17 -9 0 -17 21 -11 57 10 57 10
0 11 -4 3 -19z m70 -36 c0 -8 -7 -15 -15 -15 -16 0 -20 12 -8 23 11 12 23 8
23 -8z m34 -484 c3 -5 17 -8 31 -8 14 0 34 -8 44 -17 9 -9 27 -16 39 -16 12 0
30 -4 40 -10 36 -20 89 -39 124 -45 21 -3 37 -9 37 -13 -3 -21 15 -53 28 -48
8 4 17 -4 23 -20 6 -14 17 -33 26 -41 8 -9 13 -25 11 -35 -5 -17 42 -86 64
-96 4 -2 5 -12 2 -22 -3 -11 0 -20 6 -20 6 0 11 6 11 14 0 8 7 16 15 20 17 6
20 -11 5 -34 -5 -9 -5 -19 2 -27 6 -7 7 -13 2 -13 -4 0 2 -10 13 -22 12 -13
24 -38 28 -56 4 -21 16 -37 31 -44 13 -6 24 -15 24 -20 0 -11 -17 -10 -25 2
-10 16 -26 11 -23 -7 2 -12 -3 -17 -14 -15 -10 1 -20 -8 -26 -25 -6 -16 -11
-22 -11 -15 -1 6 -6 12 -12 12 -6 0 -8 -9 -4 -20 5 -16 2 -20 -18 -20 -14 0
-27 6 -30 13 -3 9 -9 9 -26 -1 -18 -10 -25 -10 -45 3 -14 10 -27 12 -30 7 -9
-15 -127 -26 -135 -13 -4 6 -24 13 -46 16 -21 2 -42 10 -47 17 -4 7 -8 9 -8 5
0 -5 -6 -5 -12 0 -7 4 -16 8 -20 8 -4 0 -16 7 -26 16 -10 8 -24 19 -32 23 -40
19 -65 36 -90 62 -16 16 -58 58 -94 94 -36 35 -78 87 -93 115 -26 46 -28 58
-28 165 -1 63 3 121 8 128 11 14 272 18 281 3z m583 -483 c-3 -8 -6 -5 -6 6
-1 11 2 17 5 13 3 -3 4 -12 1 -19z m143 -188 c0 -5 -6 -10 -14 -10 -8 0 -18 5
-21 10 -3 6 3 10 14 10 12 0 21 -4 21 -10z m-651 -1427 c0 -5 -4 -17 -9 -28
-8 -18 -9 -17 -9 8 -1 15 4 27 9 27 6 0 10 -3 9 -7z"/>
<path d="M3875 3450 c3 -5 8 -10 11 -10 2 0 4 5 4 10 0 6 -5 10 -11 10 -5 0
-7 -4 -4 -10z"/>
<path d="M2260 3930 c0 -13 11 -13 30 0 12 8 11 10 -7 10 -13 0 -23 -4 -23
-10z"/>
<path d="M3685 3870 c-4 -6 7 -10 24 -10 17 0 31 5 31 10 0 6 -11 10 -24 10
-14 0 -28 -4 -31 -10z"/>
<path d="M3771 3854 c0 -11 3 -14 6 -6 3 7 2 16 -1 19 -3 4 -6 -2 -5 -13z"/>
<path d="M3770 3764 c0 -8 5 -12 10 -9 6 3 10 10 10 16 0 5 -4 9 -10 9 -5 0
-10 -7 -10 -16z"/>
<path d="M2970 1925 c0 -8 5 -15 10 -15 6 0 10 7 10 15 0 8 -4 15 -10 15 -5 0
-10 -7 -10 -15z"/>
<path d="M3130 1651 c0 -6 5 -13 10 -16 6 -3 10 1 10 9 0 9 -4 16 -10 16 -5 0
-10 -4 -10 -9z"/>
<path d="M3140 1610 c0 -5 5 -10 10 -10 6 0 10 5 10 10 0 6 -4 10 -10 10 -5 0
-10 -4 -10 -10z"/>
<path d="M2882 6340 c-12 -19 -11 -20 8 -8 20 13 27 28 12 28 -4 0 -13 -9 -20
-20z"/>
<path d="M2768 6336 c-20 -15 -24 -36 -7 -36 5 0 7 5 4 10 -3 6 1 10 9 10 9 0
16 7 16 15 0 18 0 18 -22 1z"/>
<path d="M2310 6270 c8 -5 22 -9 30 -9 10 0 8 3 -5 9 -27 12 -43 12 -25 0z"/>
<path d="M2120 6240 c0 -5 4 -10 9 -10 6 0 13 5 16 10 3 6 -1 10 -9 10 -9 0
-16 -4 -16 -10z"/>
<path d="M2039 6103 c-13 -16 -12 -17 4 -4 9 7 17 15 17 17 0 8 -8 3 -21 -13z"/>
<path d="M2005 6070 c-3 -5 -1 -10 4 -10 6 0 11 5 11 10 0 6 -2 10 -4 10 -3 0
-8 -4 -11 -10z"/>
<path d="M1976 6037 c-16 -12 -16 -14 -3 -14 9 0 18 6 21 14 3 7 4 13 3 13 -2
0 -11 -6 -21 -13z"/>
<path d="M1915 6030 c-3 -5 -1 -10 4 -10 6 0 11 5 11 10 0 6 -2 10 -4 10 -3 0
-8 -4 -11 -10z"/>
<path d="M1891 5988 c-15 -24 -27 -87 -15 -75 9 9 35 89 31 94 -2 1 -9 -7 -16
-19z"/>
<path d="M1980 5960 c0 -5 5 -10 11 -10 5 0 7 5 4 10 -3 6 -8 10 -11 10 -2 0
-4 -4 -4 -10z"/>
<path d="M1836 5875 c-3 -8 -1 -15 4 -15 6 0 10 7 10 15 0 8 -2 15 -4 15 -2 0
-6 -7 -10 -15z"/>
<path d="M1434 5689 c-9 -15 -2 -18 20 -9 17 6 18 7 3 13 -9 3 -19 2 -23 -4z"/>
<path d="M1258 5034 c-5 -4 -8 -21 -7 -38 0 -30 0 -30 10 -7 11 27 8 57 -3 45z"/>
<path d="M1320 4911 c0 -5 7 -15 17 -22 15 -13 15 -12 4 9 -12 23 -21 28 -21
13z"/>
<path d="M1241 4878 c-1 -15 4 -30 9 -33 6 -3 10 -18 10 -33 0 -15 5 -34 10
-42 17 -26 10 30 -10 85 -15 40 -19 45 -19 23z"/>
<path d="M1188 4804 c-7 -7 16 -47 45 -79 10 -11 37 -46 59 -77 49 -69 70 -78
28 -11 -17 26 -30 51 -30 55 0 17 38 -17 61 -54 24 -39 69 -56 54 -20 -4 9
-10 25 -13 35 -4 14 -7 16 -13 5 -6 -10 -17 -4 -44 22 -19 18 -35 40 -35 46 0
7 -5 16 -11 20 -8 4 -9 0 -4 -15 7 -24 -12 -30 -21 -6 -4 8 -12 15 -20 15 -7
0 -22 16 -32 35 -10 20 -21 33 -24 29z"/>
<path d="M1325 4745 c4 -11 8 -27 9 -35 2 -8 6 -14 9 -12 10 3 7 13 -10 42 -9
16 -12 18 -8 5z"/>
<path d="M1367 4326 c-10 -26 -8 -48 3 -41 6 3 10 1 10 -4 0 -6 -7 -11 -16
-11 -11 0 -14 -8 -12 -27 2 -24 8 -28 33 -29 17 0 49 -12 72 -27 24 -15 47
-27 53 -27 5 0 10 -4 10 -10 0 -5 7 -10 15 -10 9 0 28 -8 43 -17 l27 -18 -25
31 c-14 17 -39 42 -57 55 -17 13 -37 35 -43 47 -6 15 -16 22 -25 18 -8 -3 -15
-1 -15 4 0 5 -7 7 -15 4 -11 -5 -13 -2 -9 10 3 9 1 16 -4 16 -6 0 -13 -8 -15
-17 -3 -13 -5 -11 -7 7 -1 14 -5 34 -9 44 -7 18 -8 18 -14 2z"/>
<path d="M1413 4096 l-21 -21 49 0 c27 0 49 3 49 7 0 4 10 7 22 5 13 -1 23 4
25 13 3 12 -8 15 -49 17 -43 1 -57 -3 -75 -21z"/>
<path d="M1775 4070 c-3 -5 1 -10 10 -10 9 0 13 5 10 10 -3 6 -8 10 -10 10 -2
0 -7 -4 -10 -10z"/>
<path d="M1503 4043 c-9 -3 -10 -10 -3 -23 8 -15 6 -21 -7 -29 -27 -14 -12
-21 27 -11 19 4 29 8 21 9 -7 1 -11 7 -7 16 6 16 -2 45 -13 44 -3 0 -12 -3
-18 -6z"/>
<path d="M1760 4030 c0 -5 7 -10 15 -10 8 0 15 5 15 10 0 6 -7 10 -15 10 -8 0
-15 -4 -15 -10z"/>
<path d="M1572 3995 c10 -10 88 -14 88 -5 0 6 -21 10 -47 10 -25 0 -44 -2 -41
-5z"/>
<path d="M1603 3905 c0 -8 4 -15 8 -15 4 0 9 7 13 15 3 9 0 15 -8 15 -7 0 -13
-7 -13 -15z"/>
<path d="M2960 3880 c0 -5 5 -10 10 -10 6 0 10 5 10 10 0 6 -4 10 -10 10 -5 0
-10 -4 -10 -10z"/>
<path d="M2880 3829 c0 -13 36 -16 47 -4 8 9 4 12 -18 11 -16 -1 -29 -4 -29
-7z"/>
<path d="M2550 3820 c0 -5 5 -10 10 -10 6 0 10 5 10 10 0 6 -4 10 -10 10 -5 0
-10 -4 -10 -10z"/>
<path d="M2734 3806 c-9 -24 12 -44 28 -28 10 10 8 16 -5 29 -15 15 -17 15
-23 -1z"/>
<path d="M2800 3776 c0 -8 -2 -20 -3 -28 -2 -7 -2 -10 0 -5 3 4 16 7 30 7 25
0 26 0 8 20 -21 23 -35 26 -35 6z"/>
<path d="M2836 3724 c-11 -27 -7 -37 9 -24 16 14 20 40 6 40 -5 0 -12 -7 -15
-16z"/>
<path d="M2980 3715 c0 -8 5 -15 10 -15 6 0 10 7 10 15 0 8 -4 15 -10 15 -5 0
-10 -7 -10 -15z"/>
<path d="M2815 3504 c9 -9 18 -14 21 -11 9 9 -6 27 -22 27 -13 0 -13 -2 1 -16z"/>
<path d="M2617 3372 c-21 -23 -21 -32 -3 -32 7 0 16 10 19 22 8 29 4 32 -16
10z"/>
<path d="M2830 3151 c0 -24 14 -41 34 -41 19 1 19 2 4 11 -10 5 -15 16 -12 24
4 9 0 15 -10 15 -9 0 -16 -4 -16 -9z"/>
<path d="M2550 3076 c0 -9 4 -16 8 -16 5 0 9 -28 10 -62 1 -35 7 -65 12 -66 8
-3 8 -8 0 -17 -11 -13 11 -70 23 -58 12 11 8 152 -5 176 -6 12 -14 28 -18 36
-9 21 -30 26 -30 7z"/>
<path d="M2880 3060 c0 -5 7 -10 16 -10 8 0 12 5 9 10 -3 6 -10 10 -16 10 -5
0 -9 -4 -9 -10z"/>
<path d="M1640 3013 c0 -5 14 -22 30 -38 17 -16 30 -37 30 -46 0 -10 5 -21 10
-24 6 -4 10 13 10 43 0 43 -3 50 -22 55 -13 2 -31 8 -40 12 -10 4 -18 3 -18
-2z"/>
<path d="M2800 3011 c0 -5 6 -14 14 -20 11 -9 16 -9 21 0 4 6 1 15 -6 20 -18
11 -29 11 -29 0z"/>
<path d="M2390 2889 c0 -5 5 -7 10 -4 6 3 10 8 10 11 0 2 -4 4 -10 4 -5 0 -10
-5 -10 -11z"/>
<path d="M4000 2885 c0 -5 5 -17 10 -25 5 -8 10 -10 10 -5 0 6 -5 17 -10 25
-5 8 -10 11 -10 5z"/>
<path d="M1960 2860 c0 -5 7 -10 15 -10 8 0 15 5 15 10 0 6 -7 10 -15 10 -8 0
-15 -4 -15 -10z"/>
<path d="M1775 2850 c3 -5 10 -10 16 -10 5 0 9 5 9 10 0 6 -7 10 -16 10 -8 0
-12 -4 -9 -10z"/>
<path d="M3960 2811 c0 -12 6 -21 15 -21 8 0 15 4 15 9 0 5 -7 14 -15 21 -13
10 -15 9 -15 -9z"/>
<path d="M3911 2804 c0 -11 3 -14 6 -6 3 7 2 16 -1 19 -3 4 -6 -2 -5 -13z"/>
<path d="M2396 2787 c3 -10 9 -15 12 -12 3 3 0 11 -7 18 -10 9 -11 8 -5 -6z"/>
<path d="M2170 2712 c0 -5 7 -17 15 -28 18 -24 19 -51 3 -57 -10 -4 -10 -6 0
-6 7 -1 15 7 18 17 3 9 11 27 17 40 9 18 8 25 -3 32 -19 12 -50 13 -50 2z"/>
<path d="M4001 2704 c0 -11 3 -14 6 -6 3 7 2 16 -1 19 -3 4 -6 -2 -5 -13z"/>
<path d="M2090 2695 c0 -8 -5 -15 -11 -15 -8 0 -8 -5 1 -15 10 -12 9 -16 -5
-22 -16 -6 -16 -7 4 -15 18 -6 29 -2 52 19 34 33 39 57 9 48 -11 -4 -20 -2
-20 4 0 6 -7 11 -15 11 -8 0 -15 -7 -15 -15z"/>
<path d="M2138 2633 c7 -3 16 -2 19 1 4 3 -2 6 -13 5 -11 0 -14 -3 -6 -6z"/>
<path d="M1848 2623 c7 -3 16 -2 19 1 4 3 -2 6 -13 5 -11 0 -14 -3 -6 -6z"/>
</g>
</svg>
